Coordinates
version=1
nRows=14
nColumns=40
inDegrees=yes

Units are S.I. units (second, meters, Newtons, ...)
Angles are in degrees.

endheader
time	pelvis_tilt	pelvis_list	pelvis_rotation	pelvis_tx	pelvis_ty	pelvis_tz	hip_flexion_r	hip_adduction_r	hip_rotation_r	knee_angle_r	knee_angle_r_beta	ankle_angle_r	subtalar_angle_r	mtp_angle_r	hip_flexion_l	hip_adduction_l	hip_rotation_l	knee_angle_l	knee_angle_l_beta	ankle_angle_l	subtalar_angle_l	mtp_angle_l	lumbar_extension	lumbar_bending	lumbar_rotation	arm_flex_r	arm_add_r	arm_rot_r	elbow_flex_r	pro_sup_r	wrist_flex_r	wrist_dev_r	arm_flex_l	arm_add_l	arm_rot_l	elbow_flex_l	pro_sup_l	wrist_flex_l	wrist_dev_l
     37.49100000	     -3.90760296	     -4.34528463	     11.32710938	      0.91421972	      0.91950130	      0.53430215	      4.99691060	      4.90874288	    -18.49147496	     17.69980077	     17.69980077	     18.53789172	     -5.75825316	     -2.25772648	     28.03565239	     -7.26469880	      1.19379161	     15.09871982	     15.09871982	      3.10474285	      0.35002565	      0.95208193	     -9.08874831	      3.85477899	      3.84431424	     61.49758053	    -19.39488427	     -5.29216954	     70.86020579	     44.97010294	      0.00000000	      0.00000000	    -16.06710698	     -8.11770843	     16.32820147	     29.82736423	     44.65481450	      0.00000000	      0.00000000
     37.51200000	     -3.98732969	     -4.56190542	     11.30903185	      0.91452746	      0.91827494	      0.53154449	      4.75125502	      4.99857546	    -18.39063678	     17.95453723	     17.95453723	     18.98220280	     -5.83947632	     -2.08171486	     28.14649801	     -7.34125141	      1.37570079	     15.87182821	     15.87182821	      1.91847252	     -0.05429509	     -0.84163482	     -8.95972328	      3.86126510	      3.67158643	     62.09568389	    -19.07434468	     -5.33785077	     71.05762106	     44.97863679	      0.00000000	      0.00000000	    -15.61011192	     -8.10444049	     16.46237735	     29.39826399	     44.66060628	      0.00000000	      0.00000000
     37.53300000	     -3.99326683	     -4.60057138	     11.23860749	      0.91503633	      0.91757644	      0.52855929	      4.28487078	      4.92200490	    -18.21734220	     18.02429958	     18.02429958	     19.25220552	     -5.83449958	     -2.04016826	     28.07066978	     -7.25983264	      1.49463381	     16.60710429	     16.60710429	      1.25946583	     -0.51259411	     -1.26412822	     -9.00344971	      3.63266116	      3.63234733	     62.46941250	    -19.04170826	     -5.39190424	     71.15210917	     44.98297313	      0.00000000	      0.00000000	    -15.12975350	     -8.31168538	     16.44103572	     29.36986081	     44.67686355	      0.00000000	      0.00000000
     37.55400000	     -4.04130714	     -4.63763492	     11.16449303	      0.91558795	      0.91696741	      0.52526231	      3.82772880	      4.81444658	    -18.08626940	     18.04498360	     18.04498360	     19.47398241	     -5.81745971	     -1.97825973	     28.18342798	     -7.12431558	      1.78780849	     17.61707019	     17.61707019	      0.85402250	     -1.23299121	     -1.66814561	     -8.98637002	      3.43681374	      3.61861290	     62.59352887	    -18.97076116	     -5.43316929	     71.19026041	     44.98712352	      0.00000000	      0.00000000	    -14.62475295	     -8.58898694	     16.39121361	     29.35577866	     44.69681209	      0.00000000	      0.00000000
     37.57500000	     -4.13909049	     -4.76253754	     11.08136288	      0.91607274	      0.91639259	      0.52169115	      3.43421237	      4.76158138	    -17.99708478	     18.03820724	     18.03820724	     19.63977256	     -5.70587393	     -1.82239862	     28.47308920	     -6.97628786	      2.44160464	     18.80364772	     18.80364772	      0.57213465	     -2.57518136	     -2.11647653	     -8.91036042	      3.41628344	      3.67220925	     62.57546436	    -19.02112243	     -5.57238507	     71.14749546	     44.99989931	      0.00000000	      0.00000000	    -14.05304760	     -8.84679602	     16.30877100	     29.31009008	     44.72775259	      0.00000000	      0.00000000
     37.59600000	     -4.23180412	     -4.73547004	     10.92838374	      0.91665871	      0.91617853	      0.51782470	      2.95570921	      4.51927768	    -17.90317449	     17.96843307	     17.96843307	     19.80108669	     -5.45054348	     -1.62692594	     28.60574370	     -6.63278033	      3.14818026	     19.85365067	     19.85365067	      0.50323580	     -4.23593228	     -2.22009993	     -8.86893000	      3.25070262	      3.82141104	     62.33699759	    -19.12088215	     -5.74825296	     70.97001284	     45.02127761	      0.00000000	      0.00000000	    -13.49081048	     -9.17601715	     16.15182466	     29.23613547	     44.77549708	      0.00000000	      0.00000000
     37.61700000	     -4.29511197	     -4.74571147	     10.71118677	      0.91722799	      0.91613831	      0.51382002	      2.43202546	      4.30296553	    -17.81272202	     17.84387697	     17.84387697	     19.81037250	     -5.12924937	     -1.52929711	     28.78716807	     -6.37535441	      3.65123922	     21.07273316	     21.07273316	      0.81534614	     -5.56974724	     -2.19426541	     -8.91521670	      3.16520191	      3.96239430	     62.08746749	    -19.18286810	     -5.83794094	     70.68795687	     45.03857558	      0.00000000	      0.00000000	    -12.96839119	     -9.52154720	     15.99862996	     29.29363676	     44.81461747	      0.00000000	      0.00000000
     37.63800000	     -4.38695155	     -4.60245932	     10.39252305	      0.91789697	      0.91630565	      0.50968026	      1.90214935	      3.90580324	    -17.55120560	     17.71401043	     17.71401043	     19.80902597	     -4.89048050	     -1.48521164	     28.79217527	     -6.04282420	      3.74684157	     22.03864491	     22.03864491	      1.23678533	     -6.44019351	     -2.30650319	     -8.93360456	      2.94019408	      4.08884492	     61.64967918	    -19.00907247	     -5.78327037	     70.42388343	     45.04502738	      0.00000000	      0.00000000	    -12.47875167	     -9.94840783	     15.88498467	     29.37438064	     44.84031373	      0.00000000	      0.00000000
     37.65900000	     -4.54084874	     -4.62179120	     10.10172518	      0.91832502	      0.91638768	      0.50508752	      1.45883216	      3.55505838	    -17.79313700	     17.56670075	     17.56670075	     19.76699411	     -3.94646396	     -1.53148006	     28.96779684	     -5.55599337	      4.85142897	     23.16962175	     23.16962175	      2.01474226	     -8.85304947	     -0.69435890	     -8.87374905	      2.94555340	      4.46419668	     61.40270990	    -19.36504964	     -6.11902095	     69.16879755	     45.11060252	      0.00000000	      0.00000000	    -11.94358238	    -10.22099566	     15.52941848	     29.48260834	     44.92150976	      0.00000000	      0.00000000
     37.68000000	     -4.70181140	     -4.62156264	      9.71205467	      0.91878586	      0.91648498	      0.50056997	      1.06210189	      3.18399309	    -17.84657403	     17.48038040	     17.48038040	     19.70601077	     -3.18174478	     -1.62086058	     29.22858146	     -5.25799398	      5.16341370	     24.51497345	     24.51497345	      3.57136577	     -9.72874860	      1.60454109	     -8.82293787	      2.95608725	      4.38897243	     61.35465033	    -18.85641503	     -6.28877976	     67.56212300	     45.19800242	      0.00000000	      0.00000000	    -11.64458669	    -10.41782248	     14.78759389	     29.48615379	     45.08320631	      0.00000000	      0.00000000
     37.70100000	     -4.83680216	     -4.66592564	      9.26025275	      0.91928058	      0.91661504	      0.49602815	      0.63006167	      2.88554456	    -17.71166980	     17.33317366	     17.33317366	     19.56240436	     -2.61957834	     -1.63166423	     29.26116310	     -5.05257857	      5.33214908	     25.43860179	     25.43860179	      4.25056887	    -10.78446944	      1.78334503	     -8.82185359	      3.03818914	      4.77012422	     60.85017070	    -18.96139757	     -6.37561661	     66.68680852	     45.23366778	      0.00000000	      0.00000000	    -11.12654469	    -10.73796221	     14.54750194	     29.69728332	     45.13390289	      0.00000000	      0.00000000
     37.72200000	     -4.95125405	     -4.62810338	      8.73978377	      0.91985210	      0.91682832	      0.49143447	      0.23956771	      2.47966940	    -17.40827185	     17.32158932	     17.32158932	     19.42401970	     -2.25718257	     -1.62170881	     29.12551601	     -4.85774247	      5.17576520	     26.14342525	     26.14342525	      4.83300310	    -11.49366549	      1.68586101	     -8.84930720	      3.05145993	      4.89360294	     60.12982702	    -18.73350547	     -6.32026341	     66.17571466	     45.24660291	      0.00000000	      0.00000000	    -10.73080842	    -11.05219089	     14.44663374	     29.79367794	     45.15572615	      0.00000000	      0.00000000
     37.74300000	     -5.14017566	     -4.62847947	      8.25503004	      0.92020137	      0.91696568	      0.48657886	     -0.05167044	      1.97306300	    -17.67794477	     17.34645855	     17.34645855	     19.24810250	     -1.02453368	     -2.02482488	     29.18027272	     -4.55304581	      5.33389384	     27.09800332	     27.09800332	      6.45206311	    -12.23260612	      4.31302559	     -8.74667616	      3.09310675	      4.77649231	     60.25732597	    -17.99168714	     -6.93536314	     62.63240289	     45.40723156	      0.00000000	      0.00000000	    -10.46248484	    -11.21878450	     13.69267424	     29.93069908	     45.30537659	      0.00000000	      0.00000000
     37.76400000	     -5.27590116	     -4.66821272	      7.71166169	      0.92069821	      0.91717667	      0.48191486	     -0.33493365	      1.60835167	    -17.36318648	     17.41799055	     17.41799055	     19.04974691	     -0.67013482	     -2.01553353	     28.97855688	     -4.44830630	      5.10391483	     27.61262797	     27.61262797	      7.01876959	    -12.77379010	      4.15829115	     -8.78532520	      3.19264263	      4.85886375	     59.22782968	    -17.75878415	     -6.87803137	     62.06290021	     45.42014815	      0.00000000	      0.00000000	    -10.00721576	    -11.51179985	     13.58605327	     30.07005680	     45.32853774	      0.00000000	      0.00000000
